<svg width="25" height="20" viewBox="0 0 25 20" fill="none" xmlns="http://www.w3.org/2000/svg">
<path d="M8.82992 0.128906C9.12242 0.128906 9.36617 0.342656 9.45617 0.623906C9.91742 2.07516 11.2787 3.12891 12.8874 3.12891C14.4962 3.12891 15.8574 2.07516 16.3187 0.623906C16.4087 0.342656 16.6524 0.128906 16.9449 0.128906H17.4174C18.2612 0.128906 19.0749 0.425156 19.7237 0.965156L24.4562 4.90641C24.7037 5.11266 24.8574 5.41266 24.8837 5.73516C24.9099 6.05766 24.8049 6.37641 24.5912 6.62016L22.4912 9.02016C22.0637 9.51141 21.3212 9.56766 20.8187 9.15141L18.8874 7.54266V16.9289C18.8874 18.2527 17.8112 19.3289 16.4874 19.3289H9.28742C7.96367 19.3289 6.88742 18.2527 6.88742 16.9289V7.54266L4.95617 9.15141C4.45742 9.56766 3.71492 9.51141 3.28367 9.02016L1.18367 6.62016C0.969917 6.37641 0.864917 6.05766 0.891167 5.73516C0.917417 5.41266 1.07117 5.11266 1.31867 4.90641L6.05117 0.965156C6.69992 0.425156 7.51367 0.128906 8.35742 0.128906H8.82992Z" fill="black"/>
</svg>
