<svg width="25" height="23" viewBox="0 0 25 23" fill="none" xmlns="http://www.w3.org/2000/svg">
<path d="M11.1944 2.01072L9.53296 2.63211C9.40075 2.68059 9.31261 2.80839 9.31261 2.94942C9.31261 3.09044 9.40075 3.21825 9.53296 3.26673L11.1944 3.88812L11.8158 5.54958C11.8643 5.68179 11.9921 5.76993 12.1331 5.76993C12.2742 5.76993 12.402 5.68179 12.4504 5.54958L13.0718 3.88812L14.7333 3.26673C14.8655 3.21825 14.9536 3.09044 14.9536 2.94942C14.9536 2.80839 14.8655 2.68059 14.7333 2.63211L13.0718 2.01072L12.4504 0.349259C12.402 0.217047 12.2742 0.128906 12.1331 0.128906C11.9921 0.128906 11.8643 0.217047 11.8158 0.349259L11.1944 2.01072ZM2.88272 17.5544C2.05861 18.3785 2.05861 19.7182 2.88272 20.5468L4.40756 22.0716C5.23168 22.8957 6.57143 22.8957 7.39995 22.0716L24.204 5.26312C25.0282 4.439 25.0282 3.09926 24.204 2.27073L22.6792 0.7503C21.8551 -0.0738181 20.5153 -0.0738181 19.6868 0.7503L2.88272 17.5544ZM22.2076 3.76913L17.5802 8.39653L16.5534 7.36969L21.1808 2.74229L22.2076 3.76913ZM1.1816 5.29397C0.983286 5.36889 0.851074 5.55839 0.851074 5.76993C0.851074 5.98147 0.983286 6.17097 1.1816 6.24589L3.67159 7.18019L4.60588 9.67017C4.6808 9.86849 4.87031 10.0007 5.08184 10.0007C5.29338 10.0007 5.48289 9.86849 5.55781 9.67017L6.4921 7.18019L8.98208 6.24589C9.1804 6.17097 9.31261 5.98147 9.31261 5.76993C9.31261 5.55839 9.1804 5.36889 8.98208 5.29397L6.4921 4.35968L5.55781 1.86969C5.48289 1.67137 5.29338 1.53916 5.08184 1.53916C4.87031 1.53916 4.6808 1.67137 4.60588 1.86969L3.67159 4.35968L1.1816 5.29397ZM16.6944 16.576C16.4961 16.6509 16.3639 16.8404 16.3639 17.052C16.3639 17.2635 16.4961 17.453 16.6944 17.5279L19.1844 18.4622L20.1187 20.9522C20.1936 21.1505 20.3831 21.2828 20.5947 21.2828C20.8062 21.2828 20.9957 21.1505 21.0706 20.9522L22.0049 18.4622L24.4949 17.5279C24.6932 17.453 24.8254 17.2635 24.8254 17.052C24.8254 16.8404 24.6932 16.6509 24.4949 16.576L22.0049 15.6417L21.0706 13.1517C20.9957 12.9534 20.8062 12.8212 20.5947 12.8212C20.3831 12.8212 20.1936 12.9534 20.1187 13.1517L19.1844 15.6417L16.6944 16.576Z" fill="black"/>
</svg>
