<svg width="26" height="23" viewBox="0 0 26 23" fill="none" xmlns="http://www.w3.org/2000/svg">
<path d="M25.4139 11.3889C25.4139 12.1822 24.7528 12.8036 24.0036 12.8036H22.5934L22.6242 19.8637C22.6242 19.9827 22.6154 20.1017 22.6022 20.2207V20.9302C22.6022 21.9041 21.8133 22.693 20.8394 22.693H20.1342C20.0858 22.693 20.0373 22.693 19.9888 22.6886C19.9271 22.693 19.8654 22.693 19.8037 22.693H18.3714H17.3137C16.3398 22.693 15.5509 21.9041 15.5509 20.9302V19.8725V17.052C15.5509 16.2719 14.9207 15.6417 14.1406 15.6417H11.3201C10.5401 15.6417 9.90988 16.2719 9.90988 17.052V19.8725V20.9302C9.90988 21.9041 9.12102 22.693 8.14706 22.693H7.08937H5.68352C5.61741 22.693 5.55131 22.6886 5.4852 22.6842C5.43232 22.6886 5.37943 22.693 5.32655 22.693H4.62142C3.64746 22.693 2.8586 21.9041 2.8586 20.9302V15.9943C2.8586 15.9546 2.8586 15.9106 2.86301 15.8709V12.8036H1.44834C0.655073 12.8036 0.0380859 12.1866 0.0380859 11.3889C0.0380859 10.9923 0.170297 10.6397 0.478791 10.3312L11.7785 0.48147C12.087 0.172977 12.4395 0.128906 12.748 0.128906C13.0565 0.128906 13.4091 0.217047 13.6735 0.4374L24.9291 10.3312C25.2817 10.6397 25.458 10.9923 25.4139 11.3889Z" fill="black"/>
</svg>
