<svg width="26" height="23" viewBox="0 0 26 23" fill="none" xmlns="http://www.w3.org/2000/svg">
<path d="M17.9358 0.0253906H8.06403C6.89616 0.0253906 5.94424 0.986128 5.98831 2.14959C5.99712 2.38316 6.00593 2.61674 6.01916 2.8459H1.36531C0.779172 2.8459 0.307617 3.31746 0.307617 3.9036C0.307617 7.98453 1.78398 10.8227 3.76715 12.7485C5.71948 14.648 8.09928 15.6043 9.85329 16.0891C10.8845 16.3756 11.5897 17.2349 11.5897 18.0987C11.5897 19.0198 10.8405 19.769 9.9194 19.769H8.76916C7.98911 19.769 7.3589 20.3992 7.3589 21.1792C7.3589 21.9593 7.98911 22.5895 8.76916 22.5895H17.2307C18.0107 22.5895 18.6409 21.9593 18.6409 21.1792C18.6409 20.3992 18.0107 19.769 17.2307 19.769H16.0805C15.1594 19.769 14.4102 19.0198 14.4102 18.0987C14.4102 17.2349 15.1109 16.3711 16.1466 16.0891C17.905 15.6043 20.2848 14.648 22.2371 12.7485C24.2159 10.8227 25.6922 7.98453 25.6922 3.9036C25.6922 3.31746 25.2207 2.8459 24.6345 2.8459H19.9807C19.9939 2.61674 20.0027 2.38757 20.0115 2.14959C20.0556 0.986128 19.1037 0.0253906 17.9358 0.0253906ZM2.46267 4.96129H6.18222C6.58326 8.93204 7.46908 11.5851 8.46948 13.3611C7.37212 12.8764 6.23069 12.1933 5.24351 11.2325C3.83326 9.86193 2.68742 7.88316 2.46707 4.96129H2.46267ZM20.7607 11.2325C19.7736 12.1933 18.6321 12.8764 17.5348 13.3611C18.5352 11.5851 19.421 8.93204 19.822 4.96129H23.5416C23.3168 7.88316 22.171 9.86193 20.7652 11.2325H20.7607Z" fill="black"/>
</svg>
