<svg width="20" height="23" viewBox="0 0 20 23" fill="none" xmlns="http://www.w3.org/2000/svg">
<path d="M9.87814 11.411C11.3742 11.411 12.8091 10.8166 13.867 9.75874C14.9248 8.70084 15.5192 7.26603 15.5192 5.76993C15.5192 4.27384 14.9248 2.83902 13.867 1.78112C12.8091 0.723227 11.3742 0.128906 9.87814 0.128906C8.38205 0.128906 6.94723 0.723227 5.88933 1.78112C4.83144 2.83902 4.23712 4.27384 4.23712 5.76993C4.23712 7.26603 4.83144 8.70084 5.88933 9.75874C6.94723 10.8166 8.38205 11.411 9.87814 11.411ZM7.86412 13.5263C3.52317 13.5263 0.00634766 17.0432 0.00634766 21.3841C0.00634766 22.1069 0.592485 22.693 1.31524 22.693H18.441C19.1638 22.693 19.7499 22.1069 19.7499 21.3841C19.7499 17.0432 16.2331 13.5263 11.8922 13.5263H7.86412Z" fill="black"/>
</svg>
