<svg xmlns="http://www.w3.org/2000/svg" xmlns:xlink="http://www.w3.org/1999/xlink" width="500" zoomAndPan="magnify" viewBox="0 0 375 374.999991" height="500" preserveAspectRatio="xMidYMid meet" version="1.2"><defs/><g id="ca6d85ac33"><rect x="0" width="375" y="0" height="374.999991" style="fill:#ffffff;fill-opacity:1;stroke:none;"/><rect x="0" width="375" y="0" height="374.999991" style="fill:#ffffff;fill-opacity:1;stroke:none;"/><g style="fill:#6a6d57;fill-opacity:1;"><g transform="translate(31.580722, 203.861939)"><path style="stroke:none" d="M 48.203125 -34.875 L 51.671875 -34.875 L 39.703125 0 L 34.734375 0 L 26.9375 -22.703125 L 19.125 0 L 14.15625 0 L 2.1875 -34.875 L 7.15625 -34.875 L 18.828125 -0.9375 L 26.625 -23.65625 L 22.75 -34.875 L 27.71875 -34.875 L 39.40625 -0.9375 L 45.859375 -19.828125 C 46.816406 -22.578125 47.484375 -25.207031 47.859375 -27.71875 C 48.242188 -30.238281 48.359375 -32.625 48.203125 -34.875 Z M 48.203125 -34.875 "/></g></g><g style="fill:#6a6d57;fill-opacity:1;"><g transform="translate(85.478923, 203.861939)"><path style="stroke:none" d="M 6.453125 0 L 1.484375 0 L 15.40625 -34.875 L 20.375 -34.875 L 34.328125 0 L 31.59375 0 C 31.300781 -1.914062 30.957031 -3.914062 30.5625 -6 C 30.164062 -8.09375 29.5 -10.300781 28.5625 -12.625 L 27.484375 -15.40625 L 12.625 -15.40625 Z M 20.03125 -34.03125 L 12.875 -16.09375 L 27.171875 -16.09375 Z M 20.03125 -34.03125 "/></g></g><g style="fill:#6a6d57;fill-opacity:1;"><g transform="translate(121.29514, 203.861939)"><path style="stroke:none" d="M 18.140625 0 L 13.171875 0 L 13.171875 -34.1875 C 11.117188 -34.1875 9.4375 -34.09375 8.125 -33.90625 C 6.8125 -33.726562 5.632812 -33.429688 4.59375 -33.015625 C 3.550781 -32.597656 2.398438 -32.0625 1.140625 -31.40625 L 1.140625 -34.875 L 30.203125 -34.875 L 30.203125 -31.40625 C 28.953125 -32.0625 27.785156 -32.597656 26.703125 -33.015625 C 25.628906 -33.429688 24.4375 -33.726562 23.125 -33.90625 C 21.820312 -34.09375 20.160156 -34.1875 18.140625 -34.1875 Z M 18.140625 0 "/></g></g><g style="fill:#6a6d57;fill-opacity:1;"><g transform="translate(152.441836, 203.861939)"><path style="stroke:none" d="M 18.734375 0.84375 C 16.015625 0.84375 13.644531 0.363281 11.625 -0.59375 C 9.601562 -1.550781 7.910156 -2.875 6.546875 -4.5625 C 5.191406 -6.257812 4.175781 -8.195312 3.5 -10.375 C 2.820312 -12.5625 2.484375 -14.882812 2.484375 -17.34375 C 2.484375 -20.851562 3.085938 -23.988281 4.296875 -26.75 C 5.503906 -29.519531 7.304688 -31.707031 9.703125 -33.3125 C 12.109375 -34.914062 15.117188 -35.71875 18.734375 -35.71875 C 22.335938 -35.71875 25.34375 -34.914062 27.75 -33.3125 C 30.15625 -31.707031 31.960938 -29.519531 33.171875 -26.75 C 34.378906 -23.988281 34.984375 -20.851562 34.984375 -17.34375 C 34.984375 -14.882812 34.640625 -12.5625 33.953125 -10.375 C 33.273438 -8.195312 32.257812 -6.257812 30.90625 -4.5625 C 29.550781 -2.875 27.863281 -1.550781 25.84375 -0.59375 C 23.820312 0.363281 21.453125 0.84375 18.734375 0.84375 Z M 18.734375 0.15625 C 20.816406 0.15625 22.578125 -0.335938 24.015625 -1.328125 C 25.460938 -2.328125 26.625 -3.660156 27.5 -5.328125 C 28.375 -7.003906 29.007812 -8.878906 29.40625 -10.953125 C 29.8125 -13.023438 30.015625 -15.15625 30.015625 -17.34375 C 30.015625 -19.5 29.8125 -21.625 29.40625 -23.71875 C 29.007812 -25.820312 28.375 -27.726562 27.5 -29.4375 C 26.625 -31.144531 25.460938 -32.503906 24.015625 -33.515625 C 22.578125 -34.523438 20.816406 -35.03125 18.734375 -35.03125 C 16.578125 -35.03125 14.773438 -34.523438 13.328125 -33.515625 C 11.890625 -32.503906 10.738281 -31.144531 9.875 -29.4375 C 9.019531 -27.726562 8.398438 -25.820312 8.015625 -23.71875 C 7.640625 -21.625 7.453125 -19.5 7.453125 -17.34375 C 7.453125 -15.15625 7.65625 -13.023438 8.0625 -10.953125 C 8.476562 -8.878906 9.132812 -7.003906 10.03125 -5.328125 C 10.925781 -3.660156 12.085938 -2.328125 13.515625 -1.328125 C 14.941406 -0.335938 16.679688 0.15625 18.734375 0.15625 Z M 18.734375 0.15625 "/></g></g><g style="fill:#6a6d57;fill-opacity:1;"><g transform="translate(189.897362, 203.861939)"><path style="stroke:none" d="M 48.203125 -34.875 L 51.671875 -34.875 L 39.703125 0 L 34.734375 0 L 26.9375 -22.703125 L 19.125 0 L 14.15625 0 L 2.1875 -34.875 L 7.15625 -34.875 L 18.828125 -0.9375 L 26.625 -23.65625 L 22.75 -34.875 L 27.71875 -34.875 L 39.40625 -0.9375 L 45.859375 -19.828125 C 46.816406 -22.578125 47.484375 -25.207031 47.859375 -27.71875 C 48.242188 -30.238281 48.359375 -32.625 48.203125 -34.875 Z M 48.203125 -34.875 "/></g></g><g style="fill:#6a6d57;fill-opacity:1;"><g transform="translate(243.795552, 203.861939)"><path style="stroke:none" d="M 8.203125 -19.28125 L 8.203125 -0.703125 C 11.316406 -0.703125 14.097656 -0.765625 16.546875 -0.890625 C 18.992188 -1.023438 21.253906 -1.296875 23.328125 -1.703125 C 25.398438 -2.117188 27.410156 -2.710938 29.359375 -3.484375 L 29.359375 0 L 3.234375 0 L 3.234375 -34.875 L 28.625 -34.875 L 28.625 -31.40625 C 26.101562 -32.46875 23.25 -33.195312 20.0625 -33.59375 C 16.882812 -33.988281 12.929688 -34.1875 8.203125 -34.1875 L 8.203125 -19.96875 L 25.984375 -19.96875 L 25.984375 -19.28125 Z M 8.203125 -19.28125 "/></g></g><g style="fill:#6a6d57;fill-opacity:1;"><g transform="translate(276.134493, 203.861939)"><path style="stroke:none" d="M 6.453125 0 L 1.484375 0 L 15.40625 -34.875 L 20.375 -34.875 L 34.328125 0 L 31.59375 0 C 31.300781 -1.914062 30.957031 -3.914062 30.5625 -6 C 30.164062 -8.09375 29.5 -10.300781 28.5625 -12.625 L 27.484375 -15.40625 L 12.625 -15.40625 Z M 20.03125 -34.03125 L 12.875 -16.09375 L 27.171875 -16.09375 Z M 20.03125 -34.03125 "/></g></g><g style="fill:#6a6d57;fill-opacity:1;"><g transform="translate(311.950698, 203.861939)"><path style="stroke:none" d="M 22.40625 -14.0625 L 29.3125 0 L 24.34375 0 L 17.046875 -14.359375 C 16.484375 -15.515625 15.585938 -16.09375 14.359375 -16.09375 C 13.628906 -16.09375 12.703125 -15.816406 11.578125 -15.265625 C 10.453125 -14.722656 9.328125 -13.941406 8.203125 -12.921875 L 8.203125 0 L 3.234375 0 L 3.234375 -34.875 L 17.484375 -34.875 C 19.867188 -34.875 21.816406 -34.46875 23.328125 -33.65625 C 24.835938 -32.851562 25.957031 -31.796875 26.6875 -30.484375 C 27.414062 -29.171875 27.78125 -27.769531 27.78125 -26.28125 C 27.78125 -24.894531 27.476562 -23.515625 26.875 -22.140625 C 26.28125 -20.765625 25.378906 -19.570312 24.171875 -18.5625 C 22.960938 -17.550781 21.429688 -16.878906 19.578125 -16.546875 C 20.898438 -16.046875 21.84375 -15.21875 22.40625 -14.0625 Z M 16.546875 -17.140625 C 17.972656 -17.078125 19.191406 -17.441406 20.203125 -18.234375 C 21.210938 -19.023438 21.976562 -20.066406 22.5 -21.359375 C 23.03125 -22.648438 23.296875 -24.007812 23.296875 -25.4375 C 23.296875 -27 22.972656 -28.441406 22.328125 -29.765625 C 21.679688 -31.085938 20.703125 -32.15625 19.390625 -32.96875 C 18.085938 -33.78125 16.425781 -34.1875 14.40625 -34.1875 L 8.203125 -34.1875 L 8.203125 -13.609375 C 9.460938 -14.671875 10.8125 -15.539062 12.25 -16.21875 C 13.6875 -16.894531 15.117188 -17.203125 16.546875 -17.140625 Z M 16.546875 -17.140625 "/></g></g><g style="fill:#6a6d57;fill-opacity:1;"><g transform="translate(41.331664, 227.467075)"><path style="stroke:none" d="M 6.03125 0.09375 C 5.09375 0.09375 4.25 -0.117188 3.5 -0.546875 C 2.75 -0.972656 2.160156 -1.5625 1.734375 -2.3125 C 1.304688 -3.070312 1.09375 -3.921875 1.09375 -4.859375 C 1.09375 -5.796875 1.304688 -6.644531 1.734375 -7.40625 C 2.160156 -8.164062 2.75 -8.757812 3.5 -9.1875 C 4.25 -9.613281 5.09375 -9.828125 6.03125 -9.828125 C 6.976562 -9.828125 7.820312 -9.613281 8.5625 -9.1875 C 9.3125 -8.757812 9.898438 -8.164062 10.328125 -7.40625 C 10.765625 -6.644531 10.984375 -5.796875 10.984375 -4.859375 C 10.984375 -3.921875 10.769531 -3.070312 10.34375 -2.3125 C 9.914062 -1.5625 9.328125 -0.972656 8.578125 -0.546875 C 7.828125 -0.117188 6.976562 0.09375 6.03125 0.09375 Z M 6.03125 -1.15625 C 6.726562 -1.15625 7.347656 -1.316406 7.890625 -1.640625 C 8.429688 -1.960938 8.859375 -2.40625 9.171875 -2.96875 C 9.484375 -3.53125 9.640625 -4.160156 9.640625 -4.859375 C 9.640625 -5.578125 9.484375 -6.21875 9.171875 -6.78125 C 8.859375 -7.34375 8.429688 -7.78125 7.890625 -8.09375 C 7.347656 -8.414062 6.726562 -8.578125 6.03125 -8.578125 C 5.351562 -8.578125 4.738281 -8.414062 4.1875 -8.09375 C 3.632812 -7.78125 3.203125 -7.34375 2.890625 -6.78125 C 2.578125 -6.21875 2.421875 -5.578125 2.421875 -4.859375 C 2.421875 -4.160156 2.578125 -3.53125 2.890625 -2.96875 C 3.203125 -2.40625 3.632812 -1.960938 4.1875 -1.640625 C 4.738281 -1.316406 5.351562 -1.15625 6.03125 -1.15625 Z M 6.03125 -1.15625 "/></g></g><g style="fill:#6a6d57;fill-opacity:1;"><g transform="translate(57.48834, 227.467075)"><path style="stroke:none" d="M 6.21875 -9.84375 C 7.0625 -9.84375 7.816406 -9.664062 8.484375 -9.3125 C 9.160156 -8.957031 9.6875 -8.4375 10.0625 -7.75 C 10.445312 -7.070312 10.640625 -6.257812 10.640625 -5.3125 L 10.640625 -0.671875 C 10.640625 -0.484375 10.570312 -0.320312 10.4375 -0.1875 C 10.300781 -0.0625 10.140625 0 9.953125 0 C 9.753906 0 9.585938 -0.0625 9.453125 -0.1875 C 9.328125 -0.320312 9.265625 -0.484375 9.265625 -0.671875 L 9.265625 -5.3125 C 9.265625 -6.363281 8.96875 -7.164062 8.375 -7.71875 C 7.789062 -8.269531 7.023438 -8.546875 6.078125 -8.546875 C 5.492188 -8.546875 4.96875 -8.429688 4.5 -8.203125 C 4.03125 -7.984375 3.65625 -7.671875 3.375 -7.265625 C 3.101562 -6.867188 2.96875 -6.429688 2.96875 -5.953125 L 2.96875 -0.671875 C 2.96875 -0.472656 2.90625 -0.3125 2.78125 -0.1875 C 2.65625 -0.0625 2.492188 0 2.296875 0 C 2.097656 0 1.929688 -0.0625 1.796875 -0.1875 C 1.671875 -0.3125 1.609375 -0.472656 1.609375 -0.671875 L 1.609375 -9.046875 C 1.609375 -9.242188 1.671875 -9.410156 1.796875 -9.546875 C 1.929688 -9.679688 2.097656 -9.75 2.296875 -9.75 C 2.492188 -9.75 2.65625 -9.679688 2.78125 -9.546875 C 2.90625 -9.410156 2.96875 -9.242188 2.96875 -9.046875 L 2.96875 -8.4375 C 3.363281 -8.882812 3.835938 -9.226562 4.390625 -9.46875 C 4.953125 -9.71875 5.5625 -9.84375 6.21875 -9.84375 Z M 6.21875 -9.84375 "/></g></g><g style="fill:#6a6d57;fill-opacity:1;"><g transform="translate(73.645016, 227.467075)"><path style="stroke:none" d="M 5.75 -9.828125 C 6.632812 -9.828125 7.414062 -9.625 8.09375 -9.21875 C 8.769531 -8.8125 9.289062 -8.242188 9.65625 -7.515625 C 10.03125 -6.796875 10.21875 -5.972656 10.21875 -5.046875 C 10.21875 -4.847656 10.160156 -4.691406 10.046875 -4.578125 C 9.929688 -4.472656 9.773438 -4.421875 9.578125 -4.421875 L 2.390625 -4.421875 C 2.484375 -3.441406 2.863281 -2.648438 3.53125 -2.046875 C 4.195312 -1.441406 5.023438 -1.140625 6.015625 -1.140625 C 6.441406 -1.140625 6.875 -1.210938 7.3125 -1.359375 C 7.75 -1.503906 8.097656 -1.691406 8.359375 -1.921875 C 8.503906 -2.046875 8.660156 -2.109375 8.828125 -2.109375 C 8.960938 -2.109375 9.097656 -2.054688 9.234375 -1.953125 C 9.378906 -1.816406 9.453125 -1.660156 9.453125 -1.484375 C 9.453125 -1.328125 9.390625 -1.1875 9.265625 -1.0625 C 8.867188 -0.726562 8.367188 -0.453125 7.765625 -0.234375 C 7.160156 -0.015625 6.578125 0.09375 6.015625 0.09375 C 5.066406 0.09375 4.21875 -0.113281 3.46875 -0.53125 C 2.71875 -0.957031 2.132812 -1.546875 1.71875 -2.296875 C 1.300781 -3.054688 1.09375 -3.910156 1.09375 -4.859375 C 1.09375 -5.828125 1.289062 -6.6875 1.6875 -7.4375 C 2.082031 -8.1875 2.632812 -8.769531 3.34375 -9.1875 C 4.050781 -9.613281 4.851562 -9.828125 5.75 -9.828125 Z M 5.75 -8.609375 C 4.851562 -8.609375 4.109375 -8.328125 3.515625 -7.765625 C 2.921875 -7.203125 2.554688 -6.46875 2.421875 -5.5625 L 8.9375 -5.5625 C 8.84375 -6.46875 8.507812 -7.203125 7.9375 -7.765625 C 7.375 -8.328125 6.644531 -8.609375 5.75 -8.609375 Z M 5.75 -8.609375 "/></g></g><g style="fill:#6a6d57;fill-opacity:1;"><g transform="translate(88.679496, 227.467075)"><path style="stroke:none" d=""/></g></g><g style="fill:#6a6d57;fill-opacity:1;"><g transform="translate(97.996154, 227.467075)"><path style="stroke:none" d="M 5.953125 0.09375 C 5.023438 0.09375 4.191406 -0.125 3.453125 -0.5625 C 2.710938 -1 2.132812 -1.59375 1.71875 -2.34375 C 1.300781 -3.09375 1.09375 -3.929688 1.09375 -4.859375 C 1.09375 -5.804688 1.289062 -6.65625 1.6875 -7.40625 C 2.09375 -8.164062 2.648438 -8.757812 3.359375 -9.1875 C 4.078125 -9.613281 4.878906 -9.828125 5.765625 -9.828125 C 7.253906 -9.828125 8.460938 -9.257812 9.390625 -8.125 C 9.484375 -8.019531 9.53125 -7.894531 9.53125 -7.75 C 9.53125 -7.5625 9.429688 -7.394531 9.234375 -7.25 C 9.117188 -7.175781 9.003906 -7.140625 8.890625 -7.140625 C 8.710938 -7.140625 8.539062 -7.226562 8.375 -7.40625 C 8.019531 -7.800781 7.628906 -8.09375 7.203125 -8.28125 C 6.773438 -8.476562 6.296875 -8.578125 5.765625 -8.578125 C 5.117188 -8.578125 4.539062 -8.421875 4.03125 -8.109375 C 3.519531 -7.796875 3.125 -7.351562 2.84375 -6.78125 C 2.5625 -6.21875 2.421875 -5.578125 2.421875 -4.859375 C 2.421875 -4.160156 2.566406 -3.53125 2.859375 -2.96875 C 3.160156 -2.40625 3.578125 -1.960938 4.109375 -1.640625 C 4.648438 -1.316406 5.265625 -1.15625 5.953125 -1.15625 C 6.898438 -1.15625 7.664062 -1.410156 8.25 -1.921875 C 8.40625 -2.054688 8.566406 -2.125 8.734375 -2.125 C 8.867188 -2.125 9 -2.078125 9.125 -1.984375 C 9.289062 -1.835938 9.375 -1.675781 9.375 -1.5 C 9.375 -1.34375 9.3125 -1.210938 9.1875 -1.109375 C 8.332031 -0.304688 7.253906 0.09375 5.953125 0.09375 Z M 5.953125 0.09375 "/></g></g><g style="fill:#6a6d57;fill-opacity:1;"><g transform="translate(112.710016, 227.467075)"><path style="stroke:none" d="M 3.703125 0 C 2.984375 0 2.394531 -0.285156 1.9375 -0.859375 C 1.476562 -1.441406 1.25 -2.179688 1.25 -3.078125 L 1.25 -13.234375 C 1.25 -13.429688 1.3125 -13.59375 1.4375 -13.71875 C 1.570312 -13.84375 1.734375 -13.90625 1.921875 -13.90625 C 2.117188 -13.90625 2.28125 -13.84375 2.40625 -13.71875 C 2.53125 -13.59375 2.59375 -13.429688 2.59375 -13.234375 L 2.59375 -3.078125 C 2.59375 -2.566406 2.695312 -2.148438 2.90625 -1.828125 C 3.113281 -1.515625 3.378906 -1.359375 3.703125 -1.359375 L 4.15625 -1.359375 C 4.332031 -1.359375 4.472656 -1.296875 4.578125 -1.171875 C 4.679688 -1.046875 4.734375 -0.878906 4.734375 -0.671875 C 4.734375 -0.472656 4.660156 -0.3125 4.515625 -0.1875 C 4.367188 -0.0625 4.175781 0 3.9375 0 Z M 3.703125 0 "/></g></g><g style="fill:#6a6d57;fill-opacity:1;"><g transform="translate(121.830739, 227.467075)"><path style="stroke:none" d="M 6.03125 0.09375 C 5.09375 0.09375 4.25 -0.117188 3.5 -0.546875 C 2.75 -0.972656 2.160156 -1.5625 1.734375 -2.3125 C 1.304688 -3.070312 1.09375 -3.921875 1.09375 -4.859375 C 1.09375 -5.796875 1.304688 -6.644531 1.734375 -7.40625 C 2.160156 -8.164062 2.75 -8.757812 3.5 -9.1875 C 4.25 -9.613281 5.09375 -9.828125 6.03125 -9.828125 C 6.976562 -9.828125 7.820312 -9.613281 8.5625 -9.1875 C 9.3125 -8.757812 9.898438 -8.164062 10.328125 -7.40625 C 10.765625 -6.644531 10.984375 -5.796875 10.984375 -4.859375 C 10.984375 -3.921875 10.769531 -3.070312 10.34375 -2.3125 C 9.914062 -1.5625 9.328125 -0.972656 8.578125 -0.546875 C 7.828125 -0.117188 6.976562 0.09375 6.03125 0.09375 Z M 6.03125 -1.15625 C 6.726562 -1.15625 7.347656 -1.316406 7.890625 -1.640625 C 8.429688 -1.960938 8.859375 -2.40625 9.171875 -2.96875 C 9.484375 -3.53125 9.640625 -4.160156 9.640625 -4.859375 C 9.640625 -5.578125 9.484375 -6.21875 9.171875 -6.78125 C 8.859375 -7.34375 8.429688 -7.78125 7.890625 -8.09375 C 7.347656 -8.414062 6.726562 -8.578125 6.03125 -8.578125 C 5.351562 -8.578125 4.738281 -8.414062 4.1875 -8.09375 C 3.632812 -7.78125 3.203125 -7.34375 2.890625 -6.78125 C 2.578125 -6.21875 2.421875 -5.578125 2.421875 -4.859375 C 2.421875 -4.160156 2.578125 -3.53125 2.890625 -2.96875 C 3.203125 -2.40625 3.632812 -1.960938 4.1875 -1.640625 C 4.738281 -1.316406 5.351562 -1.15625 6.03125 -1.15625 Z M 6.03125 -1.15625 "/></g></g><g style="fill:#6a6d57;fill-opacity:1;"><g transform="translate(137.987415, 227.467075)"><path style="stroke:none" d="M 5 0.09375 C 4.269531 0.09375 3.566406 -0.03125 2.890625 -0.28125 C 2.210938 -0.53125 1.664062 -0.878906 1.25 -1.328125 C 1.125 -1.472656 1.0625 -1.613281 1.0625 -1.75 C 1.0625 -1.945312 1.160156 -2.125 1.359375 -2.28125 C 1.492188 -2.382812 1.640625 -2.4375 1.796875 -2.4375 C 2.003906 -2.4375 2.175781 -2.351562 2.3125 -2.1875 C 2.601562 -1.851562 2.984375 -1.597656 3.453125 -1.421875 C 3.921875 -1.242188 4.4375 -1.15625 5 -1.15625 C 5.832031 -1.15625 6.457031 -1.296875 6.875 -1.578125 C 7.289062 -1.867188 7.503906 -2.242188 7.515625 -2.703125 C 7.515625 -3.128906 7.304688 -3.484375 6.890625 -3.765625 C 6.472656 -4.054688 5.816406 -4.273438 4.921875 -4.421875 C 3.753906 -4.609375 2.878906 -4.9375 2.296875 -5.40625 C 1.722656 -5.875 1.4375 -6.441406 1.4375 -7.109375 C 1.4375 -7.972656 1.769531 -8.640625 2.4375 -9.109375 C 3.113281 -9.585938 3.957031 -9.828125 4.96875 -9.828125 C 5.75 -9.828125 6.429688 -9.691406 7.015625 -9.421875 C 7.597656 -9.160156 8.066406 -8.789062 8.421875 -8.3125 C 8.515625 -8.164062 8.5625 -8.03125 8.5625 -7.90625 C 8.5625 -7.707031 8.46875 -7.546875 8.28125 -7.421875 C 8.195312 -7.367188 8.082031 -7.34375 7.9375 -7.34375 C 7.6875 -7.34375 7.484375 -7.429688 7.328125 -7.609375 C 6.742188 -8.273438 5.945312 -8.609375 4.9375 -8.609375 C 4.28125 -8.609375 3.753906 -8.472656 3.359375 -8.203125 C 2.972656 -7.929688 2.78125 -7.597656 2.78125 -7.203125 C 2.78125 -6.773438 2.960938 -6.429688 3.328125 -6.171875 C 3.703125 -5.910156 4.359375 -5.707031 5.296875 -5.5625 C 6.566406 -5.34375 7.472656 -4.992188 8.015625 -4.515625 C 8.554688 -4.035156 8.828125 -3.4375 8.828125 -2.71875 C 8.828125 -2.175781 8.664062 -1.691406 8.34375 -1.265625 C 8.019531 -0.835938 7.566406 -0.503906 6.984375 -0.265625 C 6.398438 -0.0234375 5.738281 0.09375 5 0.09375 Z M 5 0.09375 "/></g></g><g style="fill:#6a6d57;fill-opacity:1;"><g transform="translate(151.685958, 227.467075)"><path style="stroke:none" d="M 5.75 -9.828125 C 6.632812 -9.828125 7.414062 -9.625 8.09375 -9.21875 C 8.769531 -8.8125 9.289062 -8.242188 9.65625 -7.515625 C 10.03125 -6.796875 10.21875 -5.972656 10.21875 -5.046875 C 10.21875 -4.847656 10.160156 -4.691406 10.046875 -4.578125 C 9.929688 -4.472656 9.773438 -4.421875 9.578125 -4.421875 L 2.390625 -4.421875 C 2.484375 -3.441406 2.863281 -2.648438 3.53125 -2.046875 C 4.195312 -1.441406 5.023438 -1.140625 6.015625 -1.140625 C 6.441406 -1.140625 6.875 -1.210938 7.3125 -1.359375 C 7.75 -1.503906 8.097656 -1.691406 8.359375 -1.921875 C 8.503906 -2.046875 8.660156 -2.109375 8.828125 -2.109375 C 8.960938 -2.109375 9.097656 -2.054688 9.234375 -1.953125 C 9.378906 -1.816406 9.453125 -1.660156 9.453125 -1.484375 C 9.453125 -1.328125 9.390625 -1.1875 9.265625 -1.0625 C 8.867188 -0.726562 8.367188 -0.453125 7.765625 -0.234375 C 7.160156 -0.015625 6.578125 0.09375 6.015625 0.09375 C 5.066406 0.09375 4.21875 -0.113281 3.46875 -0.53125 C 2.71875 -0.957031 2.132812 -1.546875 1.71875 -2.296875 C 1.300781 -3.054688 1.09375 -3.910156 1.09375 -4.859375 C 1.09375 -5.828125 1.289062 -6.6875 1.6875 -7.4375 C 2.082031 -8.1875 2.632812 -8.769531 3.34375 -9.1875 C 4.050781 -9.613281 4.851562 -9.828125 5.75 -9.828125 Z M 5.75 -8.609375 C 4.851562 -8.609375 4.109375 -8.328125 3.515625 -7.765625 C 2.921875 -7.203125 2.554688 -6.46875 2.421875 -5.5625 L 8.9375 -5.5625 C 8.84375 -6.46875 8.507812 -7.203125 7.9375 -7.765625 C 7.375 -8.328125 6.644531 -8.609375 5.75 -8.609375 Z M 5.75 -8.609375 "/></g></g><g style="fill:#6a6d57;fill-opacity:1;"><g transform="translate(166.720438, 227.467075)"><path style="stroke:none" d="M 5.890625 -1.375 C 6.085938 -1.375 6.242188 -1.304688 6.359375 -1.171875 C 6.472656 -1.046875 6.53125 -0.878906 6.53125 -0.671875 C 6.53125 -0.484375 6.457031 -0.320312 6.3125 -0.1875 C 6.175781 -0.0625 6 0 5.78125 0 L 5.421875 0 C 4.785156 0 4.21875 -0.148438 3.71875 -0.453125 C 3.21875 -0.753906 2.828125 -1.160156 2.546875 -1.671875 C 2.273438 -2.191406 2.140625 -2.78125 2.140625 -3.4375 L 2.140625 -8.1875 L 0.984375 -8.1875 C 0.785156 -8.1875 0.628906 -8.242188 0.515625 -8.359375 C 0.410156 -8.472656 0.359375 -8.613281 0.359375 -8.78125 C 0.359375 -8.957031 0.410156 -9.101562 0.515625 -9.21875 C 0.628906 -9.332031 0.785156 -9.390625 0.984375 -9.390625 L 2.140625 -9.390625 L 2.140625 -12.140625 C 2.140625 -12.347656 2.203125 -12.515625 2.328125 -12.640625 C 2.453125 -12.773438 2.613281 -12.84375 2.8125 -12.84375 C 3.007812 -12.84375 3.175781 -12.773438 3.3125 -12.640625 C 3.445312 -12.515625 3.515625 -12.347656 3.515625 -12.140625 L 3.515625 -9.390625 L 5.515625 -9.390625 C 5.710938 -9.390625 5.863281 -9.332031 5.96875 -9.21875 C 6.082031 -9.101562 6.140625 -8.957031 6.140625 -8.78125 C 6.140625 -8.613281 6.082031 -8.472656 5.96875 -8.359375 C 5.863281 -8.242188 5.710938 -8.1875 5.515625 -8.1875 L 3.515625 -8.1875 L 3.515625 -3.4375 C 3.515625 -2.832031 3.691406 -2.335938 4.046875 -1.953125 C 4.398438 -1.566406 4.859375 -1.375 5.421875 -1.375 Z M 5.890625 -1.375 "/></g></g><g style="fill:#6a6d57;fill-opacity:1;"><g transform="translate(177.978666, 227.467075)"><path style="stroke:none" d="M 1.921875 -1.8125 C 2.285156 -1.8125 2.578125 -1.671875 2.796875 -1.390625 C 3.023438 -1.117188 3.140625 -0.734375 3.140625 -0.234375 C 3.140625 0.203125 3.054688 0.664062 2.890625 1.15625 C 2.722656 1.65625 2.503906 2.066406 2.234375 2.390625 C 1.960938 2.722656 1.695312 2.890625 1.4375 2.890625 C 1.1875 2.890625 1.0625 2.769531 1.0625 2.53125 C 1.0625 2.425781 1.085938 2.320312 1.140625 2.21875 C 1.191406 2.113281 1.269531 2 1.375 1.875 C 1.488281 1.695312 1.578125 1.539062 1.640625 1.40625 C 1.703125 1.28125 1.734375 1.132812 1.734375 0.96875 C 1.734375 0.769531 1.695312 0.601562 1.625 0.46875 C 1.550781 0.34375 1.441406 0.195312 1.296875 0.03125 C 1.160156 -0.132812 1.054688 -0.273438 0.984375 -0.390625 C 0.921875 -0.503906 0.890625 -0.65625 0.890625 -0.84375 C 0.890625 -1.132812 0.988281 -1.367188 1.1875 -1.546875 C 1.382812 -1.722656 1.628906 -1.8125 1.921875 -1.8125 Z M 1.921875 -1.8125 "/></g></g><g style="fill:#6a6d57;fill-opacity:1;"><g transform="translate(186.101876, 227.467075)"><path style="stroke:none" d=""/></g></g><g style="fill:#6a6d57;fill-opacity:1;"><g transform="translate(195.418533, 227.467075)"><path style="stroke:none" d="M 5.75 -9.828125 C 6.632812 -9.828125 7.414062 -9.625 8.09375 -9.21875 C 8.769531 -8.8125 9.289062 -8.242188 9.65625 -7.515625 C 10.03125 -6.796875 10.21875 -5.972656 10.21875 -5.046875 C 10.21875 -4.847656 10.160156 -4.691406 10.046875 -4.578125 C 9.929688 -4.472656 9.773438 -4.421875 9.578125 -4.421875 L 2.390625 -4.421875 C 2.484375 -3.441406 2.863281 -2.648438 3.53125 -2.046875 C 4.195312 -1.441406 5.023438 -1.140625 6.015625 -1.140625 C 6.441406 -1.140625 6.875 -1.210938 7.3125 -1.359375 C 7.75 -1.503906 8.097656 -1.691406 8.359375 -1.921875 C 8.503906 -2.046875 8.660156 -2.109375 8.828125 -2.109375 C 8.960938 -2.109375 9.097656 -2.054688 9.234375 -1.953125 C 9.378906 -1.816406 9.453125 -1.660156 9.453125 -1.484375 C 9.453125 -1.328125 9.390625 -1.1875 9.265625 -1.0625 C 8.867188 -0.726562 8.367188 -0.453125 7.765625 -0.234375 C 7.160156 -0.015625 6.578125 0.09375 6.015625 0.09375 C 5.066406 0.09375 4.21875 -0.113281 3.46875 -0.53125 C 2.71875 -0.957031 2.132812 -1.546875 1.71875 -2.296875 C 1.300781 -3.054688 1.09375 -3.910156 1.09375 -4.859375 C 1.09375 -5.828125 1.289062 -6.6875 1.6875 -7.4375 C 2.082031 -8.1875 2.632812 -8.769531 3.34375 -9.1875 C 4.050781 -9.613281 4.851562 -9.828125 5.75 -9.828125 Z M 5.75 -8.609375 C 4.851562 -8.609375 4.109375 -8.328125 3.515625 -7.765625 C 2.921875 -7.203125 2.554688 -6.46875 2.421875 -5.5625 L 8.9375 -5.5625 C 8.84375 -6.46875 8.507812 -7.203125 7.9375 -7.765625 C 7.375 -8.328125 6.644531 -8.609375 5.75 -8.609375 Z M 5.75 -8.609375 "/></g></g><g style="fill:#6a6d57;fill-opacity:1;"><g transform="translate(210.453014, 227.467075)"><path style="stroke:none" d="M 6.21875 -9.84375 C 7.0625 -9.84375 7.816406 -9.664062 8.484375 -9.3125 C 9.160156 -8.957031 9.6875 -8.4375 10.0625 -7.75 C 10.445312 -7.070312 10.640625 -6.257812 10.640625 -5.3125 L 10.640625 -0.671875 C 10.640625 -0.484375 10.570312 -0.320312 10.4375 -0.1875 C 10.300781 -0.0625 10.140625 0 9.953125 0 C 9.753906 0 9.585938 -0.0625 9.453125 -0.1875 C 9.328125 -0.320312 9.265625 -0.484375 9.265625 -0.671875 L 9.265625 -5.3125 C 9.265625 -6.363281 8.96875 -7.164062 8.375 -7.71875 C 7.789062 -8.269531 7.023438 -8.546875 6.078125 -8.546875 C 5.492188 -8.546875 4.96875 -8.429688 4.5 -8.203125 C 4.03125 -7.984375 3.65625 -7.671875 3.375 -7.265625 C 3.101562 -6.867188 2.96875 -6.429688 2.96875 -5.953125 L 2.96875 -0.671875 C 2.96875 -0.472656 2.90625 -0.3125 2.78125 -0.1875 C 2.65625 -0.0625 2.492188 0 2.296875 0 C 2.097656 0 1.929688 -0.0625 1.796875 -0.1875 C 1.671875 -0.3125 1.609375 -0.472656 1.609375 -0.671875 L 1.609375 -9.046875 C 1.609375 -9.242188 1.671875 -9.410156 1.796875 -9.546875 C 1.929688 -9.679688 2.097656 -9.75 2.296875 -9.75 C 2.492188 -9.75 2.65625 -9.679688 2.78125 -9.546875 C 2.90625 -9.410156 2.96875 -9.242188 2.96875 -9.046875 L 2.96875 -8.4375 C 3.363281 -8.882812 3.835938 -9.226562 4.390625 -9.46875 C 4.953125 -9.71875 5.5625 -9.84375 6.21875 -9.84375 Z M 6.21875 -9.84375 "/></g></g><g style="fill:#6a6d57;fill-opacity:1;"><g transform="translate(226.60969, 227.467075)"><path style="stroke:none" d="M 10.96875 -9.234375 C 10.976562 -9.191406 10.984375 -9.132812 10.984375 -9.0625 L 10.984375 -4.875 C 10.984375 -3.945312 10.765625 -3.101562 10.328125 -2.34375 C 9.898438 -1.59375 9.304688 -1 8.546875 -0.5625 C 7.796875 -0.125 6.957031 0.09375 6.03125 0.09375 C 5.113281 0.09375 4.273438 -0.125 3.515625 -0.5625 C 2.765625 -1 2.171875 -1.59375 1.734375 -2.34375 C 1.304688 -3.101562 1.09375 -3.945312 1.09375 -4.875 C 1.09375 -5.800781 1.300781 -6.640625 1.71875 -7.390625 C 2.132812 -8.148438 2.707031 -8.742188 3.4375 -9.171875 C 4.175781 -9.609375 4.992188 -9.828125 5.890625 -9.828125 C 6.660156 -9.828125 7.367188 -9.664062 8.015625 -9.34375 C 8.660156 -9.019531 9.1875 -8.570312 9.59375 -8 L 9.59375 -13.21875 C 9.59375 -13.414062 9.660156 -13.578125 9.796875 -13.703125 C 9.929688 -13.835938 10.097656 -13.90625 10.296875 -13.90625 C 10.492188 -13.90625 10.65625 -13.835938 10.78125 -13.703125 C 10.90625 -13.578125 10.96875 -13.414062 10.96875 -13.21875 Z M 6.03125 -1.15625 C 6.707031 -1.15625 7.316406 -1.316406 7.859375 -1.640625 C 8.410156 -1.972656 8.84375 -2.421875 9.15625 -2.984375 C 9.476562 -3.546875 9.640625 -4.175781 9.640625 -4.875 C 9.640625 -5.082031 9.632812 -5.234375 9.625 -5.328125 C 9.601562 -5.347656 9.59375 -5.378906 9.59375 -5.421875 C 9.476562 -6.335938 9.09375 -7.09375 8.4375 -7.6875 C 7.78125 -8.28125 6.976562 -8.578125 6.03125 -8.578125 C 5.351562 -8.578125 4.738281 -8.414062 4.1875 -8.09375 C 3.632812 -7.78125 3.203125 -7.34375 2.890625 -6.78125 C 2.578125 -6.21875 2.421875 -5.582031 2.421875 -4.875 C 2.421875 -4.175781 2.578125 -3.546875 2.890625 -2.984375 C 3.203125 -2.421875 3.632812 -1.972656 4.1875 -1.640625 C 4.738281 -1.316406 5.351562 -1.15625 6.03125 -1.15625 Z M 6.03125 -1.15625 "/></g></g><g style="fill:#6a6d57;fill-opacity:1;"><g transform="translate(243.300736, 227.467075)"><path style="stroke:none" d="M 3.703125 0 C 2.984375 0 2.394531 -0.285156 1.9375 -0.859375 C 1.476562 -1.441406 1.25 -2.179688 1.25 -3.078125 L 1.25 -13.234375 C 1.25 -13.429688 1.3125 -13.59375 1.4375 -13.71875 C 1.570312 -13.84375 1.734375 -13.90625 1.921875 -13.90625 C 2.117188 -13.90625 2.28125 -13.84375 2.40625 -13.71875 C 2.53125 -13.59375 2.59375 -13.429688 2.59375 -13.234375 L 2.59375 -3.078125 C 2.59375 -2.566406 2.695312 -2.148438 2.90625 -1.828125 C 3.113281 -1.515625 3.378906 -1.359375 3.703125 -1.359375 L 4.15625 -1.359375 C 4.332031 -1.359375 4.472656 -1.296875 4.578125 -1.171875 C 4.679688 -1.046875 4.734375 -0.878906 4.734375 -0.671875 C 4.734375 -0.472656 4.660156 -0.3125 4.515625 -0.1875 C 4.367188 -0.0625 4.175781 0 3.9375 0 Z M 3.703125 0 "/></g></g><g style="fill:#6a6d57;fill-opacity:1;"><g transform="translate(252.421448, 227.467075)"><path style="stroke:none" d="M 5.75 -9.828125 C 6.632812 -9.828125 7.414062 -9.625 8.09375 -9.21875 C 8.769531 -8.8125 9.289062 -8.242188 9.65625 -7.515625 C 10.03125 -6.796875 10.21875 -5.972656 10.21875 -5.046875 C 10.21875 -4.847656 10.160156 -4.691406 10.046875 -4.578125 C 9.929688 -4.472656 9.773438 -4.421875 9.578125 -4.421875 L 2.390625 -4.421875 C 2.484375 -3.441406 2.863281 -2.648438 3.53125 -2.046875 C 4.195312 -1.441406 5.023438 -1.140625 6.015625 -1.140625 C 6.441406 -1.140625 6.875 -1.210938 7.3125 -1.359375 C 7.75 -1.503906 8.097656 -1.691406 8.359375 -1.921875 C 8.503906 -2.046875 8.660156 -2.109375 8.828125 -2.109375 C 8.960938 -2.109375 9.097656 -2.054688 9.234375 -1.953125 C 9.378906 -1.816406 9.453125 -1.660156 9.453125 -1.484375 C 9.453125 -1.328125 9.390625 -1.1875 9.265625 -1.0625 C 8.867188 -0.726562 8.367188 -0.453125 7.765625 -0.234375 C 7.160156 -0.015625 6.578125 0.09375 6.015625 0.09375 C 5.066406 0.09375 4.21875 -0.113281 3.46875 -0.53125 C 2.71875 -0.957031 2.132812 -1.546875 1.71875 -2.296875 C 1.300781 -3.054688 1.09375 -3.910156 1.09375 -4.859375 C 1.09375 -5.828125 1.289062 -6.6875 1.6875 -7.4375 C 2.082031 -8.1875 2.632812 -8.769531 3.34375 -9.1875 C 4.050781 -9.613281 4.851562 -9.828125 5.75 -9.828125 Z M 5.75 -8.609375 C 4.851562 -8.609375 4.109375 -8.328125 3.515625 -7.765625 C 2.921875 -7.203125 2.554688 -6.46875 2.421875 -5.5625 L 8.9375 -5.5625 C 8.84375 -6.46875 8.507812 -7.203125 7.9375 -7.765625 C 7.375 -8.328125 6.644531 -8.609375 5.75 -8.609375 Z M 5.75 -8.609375 "/></g></g><g style="fill:#6a6d57;fill-opacity:1;"><g transform="translate(267.455939, 227.467075)"><path style="stroke:none" d="M 5 0.09375 C 4.269531 0.09375 3.566406 -0.03125 2.890625 -0.28125 C 2.210938 -0.53125 1.664062 -0.878906 1.25 -1.328125 C 1.125 -1.472656 1.0625 -1.613281 1.0625 -1.75 C 1.0625 -1.945312 1.160156 -2.125 1.359375 -2.28125 C 1.492188 -2.382812 1.640625 -2.4375 1.796875 -2.4375 C 2.003906 -2.4375 2.175781 -2.351562 2.3125 -2.1875 C 2.601562 -1.851562 2.984375 -1.597656 3.453125 -1.421875 C 3.921875 -1.242188 4.4375 -1.15625 5 -1.15625 C 5.832031 -1.15625 6.457031 -1.296875 6.875 -1.578125 C 7.289062 -1.867188 7.503906 -2.242188 7.515625 -2.703125 C 7.515625 -3.128906 7.304688 -3.484375 6.890625 -3.765625 C 6.472656 -4.054688 5.816406 -4.273438 4.921875 -4.421875 C 3.753906 -4.609375 2.878906 -4.9375 2.296875 -5.40625 C 1.722656 -5.875 1.4375 -6.441406 1.4375 -7.109375 C 1.4375 -7.972656 1.769531 -8.640625 2.4375 -9.109375 C 3.113281 -9.585938 3.957031 -9.828125 4.96875 -9.828125 C 5.75 -9.828125 6.429688 -9.691406 7.015625 -9.421875 C 7.597656 -9.160156 8.066406 -8.789062 8.421875 -8.3125 C 8.515625 -8.164062 8.5625 -8.03125 8.5625 -7.90625 C 8.5625 -7.707031 8.46875 -7.546875 8.28125 -7.421875 C 8.195312 -7.367188 8.082031 -7.34375 7.9375 -7.34375 C 7.6875 -7.34375 7.484375 -7.429688 7.328125 -7.609375 C 6.742188 -8.273438 5.945312 -8.609375 4.9375 -8.609375 C 4.28125 -8.609375 3.753906 -8.472656 3.359375 -8.203125 C 2.972656 -7.929688 2.78125 -7.597656 2.78125 -7.203125 C 2.78125 -6.773438 2.960938 -6.429688 3.328125 -6.171875 C 3.703125 -5.910156 4.359375 -5.707031 5.296875 -5.5625 C 6.566406 -5.34375 7.472656 -4.992188 8.015625 -4.515625 C 8.554688 -4.035156 8.828125 -3.4375 8.828125 -2.71875 C 8.828125 -2.175781 8.664062 -1.691406 8.34375 -1.265625 C 8.019531 -0.835938 7.566406 -0.503906 6.984375 -0.265625 C 6.398438 -0.0234375 5.738281 0.09375 5 0.09375 Z M 5 0.09375 "/></g></g><g style="fill:#6a6d57;fill-opacity:1;"><g transform="translate(281.154493, 227.467075)"><path style="stroke:none" d="M 5 0.09375 C 4.269531 0.09375 3.566406 -0.03125 2.890625 -0.28125 C 2.210938 -0.53125 1.664062 -0.878906 1.25 -1.328125 C 1.125 -1.472656 1.0625 -1.613281 1.0625 -1.75 C 1.0625 -1.945312 1.160156 -2.125 1.359375 -2.28125 C 1.492188 -2.382812 1.640625 -2.4375 1.796875 -2.4375 C 2.003906 -2.4375 2.175781 -2.351562 2.3125 -2.1875 C 2.601562 -1.851562 2.984375 -1.597656 3.453125 -1.421875 C 3.921875 -1.242188 4.4375 -1.15625 5 -1.15625 C 5.832031 -1.15625 6.457031 -1.296875 6.875 -1.578125 C 7.289062 -1.867188 7.503906 -2.242188 7.515625 -2.703125 C 7.515625 -3.128906 7.304688 -3.484375 6.890625 -3.765625 C 6.472656 -4.054688 5.816406 -4.273438 4.921875 -4.421875 C 3.753906 -4.609375 2.878906 -4.9375 2.296875 -5.40625 C 1.722656 -5.875 1.4375 -6.441406 1.4375 -7.109375 C 1.4375 -7.972656 1.769531 -8.640625 2.4375 -9.109375 C 3.113281 -9.585938 3.957031 -9.828125 4.96875 -9.828125 C 5.75 -9.828125 6.429688 -9.691406 7.015625 -9.421875 C 7.597656 -9.160156 8.066406 -8.789062 8.421875 -8.3125 C 8.515625 -8.164062 8.5625 -8.03125 8.5625 -7.90625 C 8.5625 -7.707031 8.46875 -7.546875 8.28125 -7.421875 C 8.195312 -7.367188 8.082031 -7.34375 7.9375 -7.34375 C 7.6875 -7.34375 7.484375 -7.429688 7.328125 -7.609375 C 6.742188 -8.273438 5.945312 -8.609375 4.9375 -8.609375 C 4.28125 -8.609375 3.753906 -8.472656 3.359375 -8.203125 C 2.972656 -7.929688 2.78125 -7.597656 2.78125 -7.203125 C 2.78125 -6.773438 2.960938 -6.429688 3.328125 -6.171875 C 3.703125 -5.910156 4.359375 -5.707031 5.296875 -5.5625 C 6.566406 -5.34375 7.472656 -4.992188 8.015625 -4.515625 C 8.554688 -4.035156 8.828125 -3.4375 8.828125 -2.71875 C 8.828125 -2.175781 8.664062 -1.691406 8.34375 -1.265625 C 8.019531 -0.835938 7.566406 -0.503906 6.984375 -0.265625 C 6.398438 -0.0234375 5.738281 0.09375 5 0.09375 Z M 5 0.09375 "/></g></g><g style="fill:#6a6d57;fill-opacity:1;"><g transform="translate(294.853024, 227.467075)"><path style="stroke:none" d=""/></g></g><g style="fill:#6a6d57;fill-opacity:1;"><g transform="translate(304.169682, 227.467075)"><path style="stroke:none" d="M 9.234375 -9.6875 C 9.503906 -9.582031 9.640625 -9.410156 9.640625 -9.171875 C 9.640625 -9.066406 9.613281 -8.960938 9.5625 -8.859375 L 3.796875 3.828125 C 3.691406 4.097656 3.519531 4.234375 3.28125 4.234375 C 3.15625 4.234375 3.046875 4.210938 2.953125 4.171875 C 2.679688 4.054688 2.546875 3.878906 2.546875 3.640625 C 2.546875 3.523438 2.570312 3.414062 2.625 3.3125 L 4.375 -0.59375 L 4.375 -0.609375 L 0.40625 -8.828125 C 0.363281 -8.929688 0.34375 -9.039062 0.34375 -9.15625 C 0.34375 -9.40625 0.472656 -9.582031 0.734375 -9.6875 C 0.828125 -9.738281 0.929688 -9.765625 1.046875 -9.765625 C 1.296875 -9.765625 1.472656 -9.640625 1.578125 -9.390625 L 5.0625 -2.0625 L 8.375 -9.375 C 8.488281 -9.632812 8.664062 -9.765625 8.90625 -9.765625 C 9.007812 -9.765625 9.117188 -9.738281 9.234375 -9.6875 Z M 9.234375 -9.6875 "/></g></g><g style="fill:#6a6d57;fill-opacity:1;"><g transform="translate(318.028544, 227.467075)"><path style="stroke:none" d="M 6.03125 0.09375 C 5.09375 0.09375 4.25 -0.117188 3.5 -0.546875 C 2.75 -0.972656 2.160156 -1.5625 1.734375 -2.3125 C 1.304688 -3.070312 1.09375 -3.921875 1.09375 -4.859375 C 1.09375 -5.796875 1.304688 -6.644531 1.734375 -7.40625 C 2.160156 -8.164062 2.75 -8.757812 3.5 -9.1875 C 4.25 -9.613281 5.09375 -9.828125 6.03125 -9.828125 C 6.976562 -9.828125 7.820312 -9.613281 8.5625 -9.1875 C 9.3125 -8.757812 9.898438 -8.164062 10.328125 -7.40625 C 10.765625 -6.644531 10.984375 -5.796875 10.984375 -4.859375 C 10.984375 -3.921875 10.769531 -3.070312 10.34375 -2.3125 C 9.914062 -1.5625 9.328125 -0.972656 8.578125 -0.546875 C 7.828125 -0.117188 6.976562 0.09375 6.03125 0.09375 Z M 6.03125 -1.15625 C 6.726562 -1.15625 7.347656 -1.316406 7.890625 -1.640625 C 8.429688 -1.960938 8.859375 -2.40625 9.171875 -2.96875 C 9.484375 -3.53125 9.640625 -4.160156 9.640625 -4.859375 C 9.640625 -5.578125 9.484375 -6.21875 9.171875 -6.78125 C 8.859375 -7.34375 8.429688 -7.78125 7.890625 -8.09375 C 7.347656 -8.414062 6.726562 -8.578125 6.03125 -8.578125 C 5.351562 -8.578125 4.738281 -8.414062 4.1875 -8.09375 C 3.632812 -7.78125 3.203125 -7.34375 2.890625 -6.78125 C 2.578125 -6.21875 2.421875 -5.578125 2.421875 -4.859375 C 2.421875 -4.160156 2.578125 -3.53125 2.890625 -2.96875 C 3.203125 -2.40625 3.632812 -1.960938 4.1875 -1.640625 C 4.738281 -1.316406 5.351562 -1.15625 6.03125 -1.15625 Z M 6.03125 -1.15625 "/></g></g><g style="fill:#6a6d57;fill-opacity:1;"><g transform="translate(334.18522, 227.467075)"><path style="stroke:none" d="M 9.765625 -9.75 C 9.960938 -9.75 10.125 -9.6875 10.25 -9.5625 C 10.382812 -9.4375 10.453125 -9.269531 10.453125 -9.0625 L 10.453125 -0.6875 C 10.453125 -0.488281 10.382812 -0.320312 10.25 -0.1875 C 10.125 -0.0625 9.960938 0 9.765625 0 C 9.554688 0 9.390625 -0.0625 9.265625 -0.1875 C 9.140625 -0.320312 9.078125 -0.488281 9.078125 -0.6875 L 9.078125 -1.296875 C 8.691406 -0.859375 8.21875 -0.515625 7.65625 -0.265625 C 7.101562 -0.015625 6.5 0.109375 5.84375 0.109375 C 5 0.109375 4.238281 -0.0664062 3.5625 -0.421875 C 2.894531 -0.785156 2.367188 -1.304688 1.984375 -1.984375 C 1.609375 -2.671875 1.421875 -3.488281 1.421875 -4.4375 L 1.421875 -9.0625 C 1.421875 -9.25 1.484375 -9.410156 1.609375 -9.546875 C 1.742188 -9.679688 1.910156 -9.75 2.109375 -9.75 C 2.304688 -9.75 2.46875 -9.679688 2.59375 -9.546875 C 2.726562 -9.410156 2.796875 -9.25 2.796875 -9.0625 L 2.796875 -4.4375 C 2.796875 -3.375 3.085938 -2.566406 3.671875 -2.015625 C 4.265625 -1.460938 5.035156 -1.1875 5.984375 -1.1875 C 6.566406 -1.1875 7.09375 -1.300781 7.5625 -1.53125 C 8.03125 -1.757812 8.398438 -2.070312 8.671875 -2.46875 C 8.941406 -2.863281 9.078125 -3.304688 9.078125 -3.796875 L 9.078125 -9.0625 C 9.078125 -9.269531 9.140625 -9.4375 9.265625 -9.5625 C 9.390625 -9.6875 9.554688 -9.75 9.765625 -9.75 Z M 9.765625 -9.75 "/></g></g></g></svg>